<?xml version="1.0" standalone="no"?>
<!DOCTYPE svg PUBLIC "-//W3C//DTD SVG 20010904//EN"
 "http://www.w3.org/TR/2001/REC-SVG-20010904/DTD/svg10.dtd">
<svg version="1.0" xmlns="http://www.w3.org/2000/svg"
 width="1800.000000pt" height="1800.000000pt" viewBox="0 0 1800.000000 1800.000000"
 preserveAspectRatio="xMidYMid meet">
<metadata>
Created by potrace 1.14, written by Peter Selinger 2001-2017
</metadata>
<g transform="translate(0.000000,1800.000000) scale(0.100000,-0.100000)"
fill="#000000" stroke="none">
<path d="M4313 13276 c-165 -54 -262 -187 -298 -407 -8 -55 14 -186 46 -270
77 -199 238 -340 423 -372 104 -18 243 20 312 85 12 11 24 15 28 10 3 -5 34
-92 70 -193 65 -185 192 -529 263 -713 21 -54 42 -98 47 -98 5 1 24 36 43 79
37 85 69 125 117 144 17 7 32 13 34 15 2 1 -6 20 -17 43 -36 70 -237 640 -374
1061 -43 129 -93 267 -113 305 -72 141 -156 224 -289 287 -60 28 -83 33 -160
35 -57 2 -106 -2 -132 -11z m254 -169 c71 -37 147 -115 187 -196 154 -305 -34
-623 -309 -520 -264 99 -372 497 -184 681 58 57 92 68 184 64 51 -2 84 -10
122 -29z"/>
<path d="M6358 13280 c-78 -20 -162 -72 -239 -149 -104 -103 -136 -176 -294
-651 -145 -439 -296 -858 -325 -905 -21 -34 -43 -47 -109 -65 -26 -7 -49 -22
-65 -43 -71 -95 -367 -922 -650 -1817 -207 -659 -431 -1408 -422 -1417 4 -5
420 826 519 1037 19 41 65 138 102 215 561 1169 809 1754 1107 2600 39 110 75
210 79 223 l9 23 33 -25 c96 -73 224 -101 336 -72 237 61 413 284 437 556 12
138 -46 300 -142 390 -78 74 -148 103 -254 107 -47 1 -102 -2 -122 -7z m207
-159 c43 -19 104 -81 129 -129 27 -52 39 -160 28 -236 -40 -257 -283 -446
-471 -366 -136 59 -200 228 -155 409 23 91 57 155 117 218 84 89 152 122 252
122 37 0 75 -6 100 -18z m-1074 -1787 c35 -18 63 -75 53 -107 -13 -44 -55 -77
-97 -77 -103 0 -137 145 -44 185 41 18 52 18 88 -1z"/>
<path d="M2403 11359 c-216 -28 -412 -118 -540 -250 -104 -106 -157 -196 -199
-336 -53 -172 -30 -415 52 -577 116 -228 265 -333 829 -586 341 -152 507 -276
586 -435 37 -74 42 -93 46 -172 4 -73 1 -99 -17 -152 -57 -168 -191 -285 -390
-338 -103 -28 -281 -23 -395 11 -167 49 -312 128 -474 258 -99 80 -129 86
-178 38 -59 -58 -114 -138 -120 -175 -6 -35 -3 -40 54 -93 162 -155 416 -280
676 -332 95 -19 130 -22 280 -17 146 4 186 9 266 31 317 89 544 291 626 558
25 80 27 97 23 230 -3 124 -8 154 -32 223 -58 168 -179 314 -358 435 -104 69
-372 204 -548 275 -129 52 -267 122 -356 180 -74 49 -174 151 -208 212 -50 89
-72 207 -57 303 29 180 159 322 355 387 73 24 95 27 231 27 143 0 154 -1 250
-33 92 -31 182 -73 325 -151 73 -40 108 -39 146 3 55 58 99 138 99 178 0 50
-27 77 -129 131 -275 145 -568 203 -843 167z"/>
<path d="M11250 11360 c-109 -13 -276 -54 -382 -95 -508 -196 -864 -615 -985
-1158 -24 -109 -27 -142 -27 -322 -1 -170 3 -217 22 -312 85 -420 327 -783
677 -1015 158 -105 328 -176 534 -225 109 -26 129 -28 346 -28 212 1 239 3
345 27 528 120 941 472 1139 970 16 40 43 129 61 198 29 113 33 143 37 315 8
274 -20 442 -108 662 -198 495 -635 854 -1169 963 -119 24 -367 34 -490 20z
m460 -333 c501 -117 878 -505 980 -1009 22 -104 29 -303 15 -404 -32 -229
-139 -472 -281 -638 -209 -245 -452 -389 -755 -447 -147 -28 -385 -24 -520 9
-601 147 -1014 687 -986 1292 27 586 445 1082 1012 1199 143 29 146 30 295 26
98 -3 164 -10 240 -28z"/>
<path d="M13954 11346 l-29 -24 0 -1517 0 -1517 28 -24 c26 -22 37 -24 132
-24 95 0 106 2 132 24 l28 24 5 1213 5 1213 285 -355 c156 -195 411 -513 567
-706 156 -194 410 -512 566 -705 156 -194 355 -442 442 -550 l158 -198 62 0
c51 0 65 4 83 23 l22 23 0 1511 0 1510 -21 27 c-20 25 -23 26 -139 26 -116 0
-119 -1 -139 -26 -21 -27 -21 -28 -21 -1211 0 -726 -4 -1183 -9 -1181 -5 2
-94 109 -198 238 -104 129 -285 354 -402 500 -118 146 -319 396 -447 555 -128
160 -392 488 -586 730 l-354 440 -71 3 c-63 3 -74 0 -99 -22z"/>
<path d="M7719 11301 l-24 -19 -3 -1492 -2 -1491 29 -30 29 -29 794 0 c784 0
795 0 816 20 29 27 35 55 30 150 -3 67 -7 83 -26 102 l-23 23 -654 3 -655 2 0
1368 0 1369 -23 21 c-21 20 -34 22 -144 22 -104 0 -124 -3 -144 -19z"/>
<path d="M5656 11113 c-15 -37 -64 -153 -108 -256 l-80 -188 27 -62 c84 -190
190 -419 328 -712 211 -448 383 -805 564 -1170 197 -396 244 -487 249 -482 3
2 -30 121 -72 263 -42 143 -82 279 -89 304 -7 25 -43 144 -80 265 -37 121 -80
261 -95 310 -179 589 -576 1754 -609 1788 -5 5 -21 -22 -35 -60z"/>
<path d="M1622 6903 l3 -738 60 0 60 0 5 340 5 340 120 0 120 0 3 -343 2 -343
58 3 57 3 3 738 2 737 -60 0 -60 0 -2 -332 -3 -333 -122 -3 -123 -3 0 336 0
335 -65 0 -65 0 2 -737z"/>
<path d="M4260 7634 c0 -7 -62 -503 -90 -724 -41 -321 -90 -720 -90 -735 0
-13 11 -15 68 -13 l67 3 20 183 20 182 71 0 71 0 17 -162 c9 -90 18 -172 19
-183 2 -18 10 -20 70 -23 59 -3 67 -1 67 15 0 10 -41 341 -90 737 -50 395 -90
720 -90 722 0 2 -29 4 -65 4 -36 0 -65 -3 -65 -6z m94 -691 c35 -311 38 -283
-29 -283 -30 0 -55 3 -55 8 -1 17 54 511 56 509 2 -1 14 -107 28 -234z"/>
<path d="M6530 6900 l0 -740 60 0 60 0 0 740 0 740 -60 0 -60 0 0 -740z"/>
<path d="M8632 6903 l3 -738 60 0 60 0 3 344 2 344 79 -5 c85 -5 118 -19 148
-65 16 -24 18 -61 21 -326 l4 -298 56 3 57 3 0 348 0 349 -28 22 -27 22 27 21
28 20 3 254 c4 301 1 328 -40 375 -54 61 -67 64 -273 64 l-185 0 2 -737z m308
602 c57 -30 65 -60 65 -260 0 -155 -3 -185 -18 -213 -24 -44 -70 -62 -157 -62
l-70 0 0 275 0 275 75 0 c48 0 87 -6 105 -15z"/>
<path d="M11260 7626 c0 -12 -24 -210 -145 -1175 -19 -151 -32 -278 -29 -283
6 -10 121 -11 127 0 3 4 12 77 21 162 24 221 14 200 96 200 39 0 70 -2 70 -4
0 -14 31 -298 36 -328 l6 -38 64 0 64 0 0 32 c0 18 -9 100 -20 183 -11 82 -49
386 -85 675 -35 289 -67 540 -70 558 l-6 32 -64 0 c-49 0 -65 -3 -65 -14z m80
-508 c1 -24 11 -133 24 -243 13 -110 21 -203 19 -207 -2 -5 -29 -8 -59 -8
l-56 0 6 38 c3 20 15 133 27 250 12 116 26 212 31 212 4 0 8 -19 8 -42z"/>
<path d="M13532 6903 l3 -738 60 0 60 0 3 343 2 342 118 0 c138 0 170 12 217
78 l30 44 0 271 c0 268 0 273 -24 310 -12 21 -39 49 -59 62 -36 24 -41 25
-224 25 l-188 0 2 -737z m326 583 l37 -34 3 -201 3 -200 -35 -38 c-34 -38 -35
-38 -120 -42 l-86 -3 0 276 0 276 80 0 c77 0 82 -1 118 -34z"/>
<path d="M15960 7635 c0 -3 41 -167 90 -366 l90 -361 0 -375 0 -374 63 3 62 3
5 390 5 390 82 325 c46 179 85 335 88 348 5 21 3 22 -59 22 -53 0 -66 -3 -70
-17 -3 -10 -24 -94 -46 -188 -55 -226 -61 -248 -66 -243 -4 4 -114 434 -114
445 0 2 -29 3 -65 3 -36 0 -65 -2 -65 -5z"/>
</g>
</svg>
